<?xml version="1.0" standalone="no"?>
<!DOCTYPE svg PUBLIC "-//W3C//DTD SVG 20010904//EN"
 "http://www.w3.org/TR/2001/REC-SVG-20010904/DTD/svg10.dtd">
<svg version="1.0" xmlns="http://www.w3.org/2000/svg"
 width="700.000000pt" height="700.000000pt" viewBox="0 0 700.000000 700.000000"
 preserveAspectRatio="xMidYMid meet">
<metadata>
Created by potrace 1.14, written by Peter Selinger 2001-2017
</metadata>
<g transform="translate(0.000000,700.000000) scale(0.100000,-0.100000)"
fill="#000000" stroke="none">
<path d="M5915 6769 c-72 -11 -131 -36 -210 -87 -38 -25 -72 -49 -75 -52 -3
-3 -32 -25 -65 -50 -33 -25 -65 -49 -72 -55 -26 -21 -39 -32 -78 -60 -22 -17
-42 -32 -45 -35 -3 -3 -34 -29 -70 -59 -36 -30 -111 -101 -168 -157 -57 -57
-122 -119 -145 -138 -68 -55 -189 -117 -282 -143 -29 -8 -195 -9 -230 -1 -16
4 -84 20 -150 37 -118 29 -257 56 -347 66 -25 3 -56 8 -69 10 -122 24 -681 24
-805 1 -10 -2 -44 -7 -75 -10 -31 -4 -67 -9 -80 -11 -13 -3 -41 -7 -62 -10
-22 -4 -76 -17 -121 -30 -101 -29 -244 -63 -271 -64 -223 -11 -356 51 -595
276 -62 58 -305 260 -418 346 -229 176 -306 218 -418 225 -65 4 -80 1 -128
-22 -130 -64 -199 -224 -220 -506 -12 -162 -20 -374 -20 -560 0 -190 12 -578
19 -623 2 -12 6 -80 10 -152 3 -71 8 -148 10 -170 2 -22 7 -71 10 -110 4 -38
8 -83 10 -100 3 -16 9 -66 15 -110 6 -44 13 -93 16 -110 3 -16 -2 -47 -10 -70
-69 -184 -143 -525 -161 -740 -4 -38 -8 -88 -11 -110 -9 -74 -5 -409 6 -505
80 -710 448 -1373 1053 -1893 85 -74 280 -220 342 -257 22 -13 42 -26 45 -29
7 -8 41 -29 60 -38 8 -4 44 -25 80 -46 68 -42 272 -142 362 -178 203 -81 413
-140 618 -175 112 -19 447 -26 565 -12 424 51 874 227 1280 502 102 69 218
155 259 191 6 6 43 37 81 69 117 100 304 294 410 426 88 110 245 330 245 343
0 3 19 38 43 79 124 210 234 494 291 748 22 101 53 307 54 365 3 101 1 385 -2
405 -2 14 -7 61 -11 105 -3 44 -10 107 -15 140 -5 33 -12 78 -16 100 -21 137
-80 371 -126 498 -20 55 -20 60 -4 160 8 56 18 134 22 172 3 39 7 81 9 95 2
14 6 66 10 115 3 50 8 117 10 150 2 33 7 121 11 195 3 74 8 160 10 190 5 83 5
655 -1 735 -2 39 -7 106 -10 150 -15 234 -44 359 -105 455 -64 99 -157 145
-265 129z"/>
</g>
</svg>
