<?xml version="1.0" standalone="no"?>
<!DOCTYPE svg PUBLIC "-//W3C//DTD SVG 20010904//EN"
 "http://www.w3.org/TR/2001/REC-SVG-20010904/DTD/svg10.dtd">
<svg version="1.0" xmlns="http://www.w3.org/2000/svg"
 width="512.000000pt" height="512.000000pt" viewBox="0 0 512.000000 512.000000"
 preserveAspectRatio="xMidYMid meet">
<metadata>
Created by potrace 1.14, written by Peter Selinger 2001-2017
</metadata>
<g transform="translate(0.000000,512.000000) scale(0.100000,-0.100000)"
fill="#000000" stroke="none">
<path d="M78 4308 c-18 -3 -43 -18 -55 -33 l-23 -26 0 -1109 c0 -739 4 -1118
11 -1138 5 -16 21 -40 35 -53 25 -24 27 -24 300 -27 310 -3 325 -1 371 70 l26
38 0 370 c0 204 3 389 7 412 6 29 18 52 39 70 l31 28 310 0 c213 0 317 -4 334
-12 14 -6 35 -26 46 -45 19 -33 20 -52 20 -424 0 -363 1 -392 19 -427 23 -45
46 -66 86 -79 17 -5 148 -8 291 -8 290 1 296 3 331 68 16 30 17 111 18 1136 0
714 -3 1115 -10 1135 -18 56 -39 60 -355 60 -247 0 -289 -3 -317 -17 -63 -33
-62 -29 -63 -376 0 -174 -2 -323 -3 -331 -6 -33 -37 -77 -62 -88 -18 -8 -116
-12 -334 -12 -297 0 -309 1 -335 21 -50 39 -51 42 -52 395 -2 372 -2 371 -74
395 -38 13 -533 19 -592 7z"/>
<path d="M2815 4310 c-16 -3 -34 -14 -40 -26 -7 -13 -10 -400 -9 -1164 l0
-1143 32 -28 32 -29 326 0 c290 0 329 2 355 17 16 10 32 26 36 38 4 11 8 216
9 455 1 239 2 438 3 442 3 19 36 38 66 38 68 0 137 -31 193 -88 28 -29 52 -57
52 -63 0 -5 11 -26 23 -47 13 -20 57 -100 97 -177 40 -77 76 -144 80 -150 4
-5 42 -77 85 -160 113 -216 140 -264 158 -286 16 -18 34 -19 385 -19 l369 0
21 23 c12 13 22 33 22 45 0 48 -284 590 -350 669 -5 7 -10 15 -10 18 0 15
-114 157 -179 223 -95 97 -94 111 8 164 171 89 296 231 345 393 59 196 29 433
-75 586 -112 165 -262 239 -539 265 -86 8 -1451 12 -1495 4z m1178 -461 c161
-30 247 -156 206 -302 -19 -69 -112 -147 -193 -163 -97 -19 -139 -22 -268 -24
-201 -1 -188 -19 -188 245 0 135 4 213 12 230 l12 26 185 -1 c102 -1 208 -6
234 -11z"/>
<path d="M66 1412 c-62 -25 -66 -42 -63 -305 l2 -237 33 -32 32 -33 2476 0
c2035 0 2482 2 2509 13 59 24 65 51 65 297 0 244 -6 273 -63 296 -46 20 -4943
20 -4991 1z"/>
</g>
</svg>
