<?xml version="1.0" standalone="no"?>
<!DOCTYPE svg PUBLIC "-//W3C//DTD SVG 20010904//EN"
 "http://www.w3.org/TR/2001/REC-SVG-20010904/DTD/svg10.dtd">
<svg version="1.0" xmlns="http://www.w3.org/2000/svg"
 width="700.000000pt" height="700.000000pt" viewBox="0 0 700.000000 700.000000"
 preserveAspectRatio="xMidYMid meet">
<metadata>
Created by potrace 1.14, written by Peter Selinger 2001-2017
</metadata>
<g transform="translate(0.000000,700.000000) scale(0.100000,-0.100000)"
fill="#000000" stroke="none">
<path d="M1032 6654 c-48 -33 -52 -57 -52 -299 l0 -225 -270 0 -270 0 0 -605
0 -605 2950 0 2950 0 0 605 0 605 -270 0 -270 0 0 225 c0 242 -4 266 -52 299
-12 9 -41 16 -64 16 -34 0 -49 -6 -73 -31 l-31 -31 0 -239 0 -239 -275 0 -275
0 0 236 0 236 -34 34 c-46 46 -101 48 -148 5 l-33 -29 -3 -241 -3 -241 -270 0
-269 0 0 220 c0 237 -6 272 -51 304 -33 23 -100 21 -132 -4 -40 -32 -47 -77
-47 -307 l0 -213 -270 0 -270 0 0 236 0 236 -34 34 c-28 28 -42 34 -76 34 -34
0 -48 -6 -76 -34 l-34 -34 0 -236 0 -236 -270 0 -270 0 0 213 c0 116 -5 229
-10 249 -19 68 -111 102 -169 62 -45 -32 -51 -67 -51 -304 l0 -220 -269 0
-270 0 -3 241 -3 241 -33 29 c-37 33 -85 38 -131 15 -47 -25 -51 -48 -51 -296
l0 -230 -275 0 -275 0 0 238 c0 209 -2 239 -18 258 -36 45 -107 58 -150 28z
m-34 -1241 c29 -51 94 -68 151 -39 42 22 51 55 51 186 0 65 4 121 8 124 15 9
76 -28 89 -54 8 -16 13 -74 13 -167 l0 -143 -29 -32 -29 -33 -157 0 -157 0
-29 33 -29 32 0 148 c0 164 6 183 64 207 l31 13 5 -126 c3 -75 10 -136 18
-149z m752 146 l0 -131 34 -34 c46 -46 101 -48 148 -5 l33 29 3 136 c3 121 5
134 20 129 79 -24 92 -55 92 -212 0 -205 -16 -221 -220 -221 -205 0 -220 15
-220 215 0 146 11 183 61 208 19 9 37 17 42 17 4 0 7 -59 7 -131z m778 -146
c39 -69 144 -71 189 -4 14 20 19 53 21 153 l4 126 29 -10 c16 -5 38 -21 49
-35 18 -23 20 -41 20 -174 l0 -149 -29 -32 -29 -33 -157 0 -157 0 -29 33 -29
32 0 148 c0 164 6 183 64 207 l31 13 5 -126 c3 -74 10 -136 18 -149z m790 -24
c47 -43 102 -41 148 5 l34 34 0 131 c0 72 3 131 6 131 3 0 21 -7 39 -16 53
-25 65 -63 65 -209 0 -200 -15 -215 -220 -215 -204 0 -220 16 -220 221 0 131
12 177 53 197 53 26 52 28 57 -115 l5 -135 33 -29z m739 25 c43 -76 165 -69
199 11 9 23 14 73 14 149 l0 115 30 -11 c62 -21 70 -44 70 -209 l0 -149 -29
-32 -29 -33 -157 0 -157 0 -29 33 -29 32 0 143 c0 160 7 183 60 210 l35 17 5
-127 c3 -71 11 -137 17 -149z m791 -25 c47 -43 102 -41 148 5 l34 34 0 131 c0
72 2 131 5 131 3 0 21 -6 40 -14 55 -23 65 -56 65 -206 0 -206 -14 -220 -220
-220 -205 0 -215 11 -215 226 l0 143 29 30 c16 16 38 31 50 33 20 3 21 -2 26
-130 l5 -134 33 -29z m732 162 c0 -122 1 -129 24 -154 49 -53 134 -47 173 12
21 31 23 45 23 158 l0 123 32 -13 c64 -26 73 -52 73 -206 0 -209 -12 -221
-222 -221 -142 0 -183 14 -203 66 -17 44 -13 280 6 315 15 29 70 63 86 53 5
-3 8 -63 8 -133z"/>
<path d="M550 4755 l0 -55 2840 0 2840 0 0 55 0 55 -2840 0 -2840 0 0 -55z"/>
<path d="M1640 4265 l0 -225 220 0 220 0 0 225 0 225 -220 0 -220 0 0 -225z"/>
<path d="M2400 4265 l0 -225 225 0 225 0 0 225 0 225 -225 0 -225 0 0 -225z"/>
<path d="M3170 4265 l0 -225 220 0 220 0 0 225 0 225 -220 0 -220 0 0 -225z"/>
<path d="M3930 4265 l0 -225 225 0 225 0 0 225 0 225 -225 0 -225 0 0 -225z"/>
<path d="M4700 4265 l0 -225 223 2 222 3 0 220 0 220 -222 3 -223 2 0 -225z"/>
<path d="M5462 4268 l3 -223 223 -3 222 -2 0 225 0 225 -225 0 -225 0 2 -222z"/>
<path d="M870 3500 l0 -220 225 0 225 0 0 220 0 220 -225 0 -225 0 0 -220z"/>
<path d="M1640 3500 l0 -220 220 0 220 0 0 220 0 220 -220 0 -220 0 0 -220z"/>
<path d="M2400 3500 l0 -220 225 0 225 0 0 220 0 220 -225 0 -225 0 0 -220z"/>
<path d="M3170 3500 l0 -220 220 0 220 0 0 220 0 220 -220 0 -220 0 0 -220z"/>
<path d="M3930 3500 l0 -220 225 0 225 0 0 220 0 220 -225 0 -225 0 0 -220z"/>
<path d="M4700 3500 l0 -220 225 0 225 0 0 220 0 220 -225 0 -225 0 0 -220z"/>
<path d="M5460 3500 l0 -220 225 0 225 0 0 220 0 220 -225 0 -225 0 0 -220z"/>
<path d="M5106 3169 c-223 -22 -457 -106 -644 -230 -40 -27 -75 -49 -77 -49
-3 0 -5 16 -5 35 l0 35 -225 0 -225 0 0 -225 0 -225 55 0 55 0 -44 -82 c-167
-311 -216 -687 -130 -1015 13 -51 24 -95 24 -98 0 -3 -751 -5 -1670 -5 l-1670
0 0 -55 0 -55 1694 0 1693 0 21 -50 21 -50 -1715 0 -1714 0 0 -60 0 -60 1751
-2 1751 -3 35 -47 35 -48 -1786 0 -1786 0 0 -55 0 -55 1833 0 1834 0 19 -21
c35 -40 169 -146 239 -191 150 -97 316 -165 495 -204 133 -29 440 -27 579 4
558 125 974 547 1097 1112 15 66 19 128 19 280 0 152 -4 214 -19 280 -137 632
-637 1080 -1271 1140 -122 11 -141 11 -269 -1z m390 -134 c169 -34 339 -104
487 -201 93 -61 290 -258 351 -351 97 -148 161 -304 202 -488 24 -111 24 -379
0 -490 -41 -184 -105 -340 -203 -488 -60 -92 -257 -289 -348 -349 -148 -97
-315 -167 -490 -204 -112 -24 -380 -24 -490 0 -284 62 -479 168 -675 365 -124
124 -185 208 -254 348 -94 192 -129 346 -129 573 0 227 35 381 129 573 69 141
130 224 253 348 188 188 365 288 628 354 148 37 382 41 539 10z"/>
<path d="M5845 2388 c-15 -12 -199 -236 -408 -497 -209 -262 -388 -485 -398
-496 -19 -19 -22 -16 -262 223 l-243 242 -48 0 c-39 0 -53 -5 -76 -29 -33 -33
-45 -69 -35 -109 4 -18 119 -140 333 -355 180 -180 330 -326 334 -325 5 2 224
273 488 603 341 427 482 609 486 633 18 95 -96 169 -171 110z"/>
<path d="M872 2793 l3 -168 220 0 220 0 3 168 2 167 -225 0 -225 0 2 -167z"/>
<path d="M1640 2790 l0 -170 55 0 55 0 0 -595 0 -595 597 0 598 0 -160 160
-160 160 113 0 112 0 0 220 0 220 -225 0 -225 0 0 -107 0 -108 -265 265 -265
265 105 3 105 3 0 224 0 225 -220 0 -220 0 0 -170z"/>
<path d="M2400 2735 l0 -225 225 0 225 0 0 225 0 225 -225 0 -225 0 0 -225z"/>
<path d="M3170 2735 l0 -225 220 0 220 0 0 225 0 225 -220 0 -220 0 0 -225z"/>
<path d="M550 2015 l0 -595 597 0 598 0 -595 595 c-327 327 -596 595 -597 595
-2 0 -3 -268 -3 -595z"/>
<path d="M3170 1970 l0 -220 220 0 220 0 0 220 0 220 -220 0 -220 0 0 -220z"/>
</g>
</svg>
